<svg width="16" height="22" viewBox="0 0 16 22" fill="none" xmlns="http://www.w3.org/2000/svg">
<g clip-path="url(#clip0)">
<path d="M7.5625 3.4375C5.28773 3.4375 3.4375 5.28773 3.4375 7.5625C3.4375 7.94234 3.74516 8.25 4.125 8.25C4.50484 8.25 4.8125 7.94234 4.8125 7.5625C4.8125 6.0457 6.04656 4.8125 7.5625 4.8125C7.94234 4.8125 8.25 4.50484 8.25 4.125C8.25 3.74516 7.94234 3.4375 7.5625 3.4375ZM4.12758 19.73C4.12758 19.8653 4.16754 19.9972 4.24273 20.1098L5.2959 21.6928C5.42352 21.8844 5.63836 21.9996 5.86824 21.9996H9.25633C9.48664 21.9996 9.70148 21.8844 9.82867 21.6928L10.8818 20.1098C10.9566 19.9972 10.9966 19.8649 10.997 19.73L10.9991 17.8746H4.12586L4.12758 19.73ZM7.5625 0C3.16766 0 0 3.56512 0 7.5625C0 9.46902 0.706836 11.2084 1.87172 12.5374C2.58672 13.3534 3.7082 15.064 4.12414 16.4974V16.5H6.18664V16.4948C6.18621 16.2899 6.1557 16.0862 6.09426 15.8903C5.85406 15.125 5.11371 13.1072 3.42289 11.1779C2.54031 10.1711 2.06852 8.8941 2.06465 7.5625C2.05605 4.39828 4.62859 2.0625 7.5625 2.0625C10.5952 2.0625 13.0625 4.52977 13.0625 7.5625C13.0625 8.89324 12.5795 10.1771 11.7025 11.1779C10.022 13.0947 9.27824 15.1082 9.03418 15.8812C8.97119 16.08 8.93902 16.2872 8.93879 16.4957V16.5H11.0013V16.4979C11.4172 15.064 12.5387 13.3534 13.2537 12.5379C14.4182 11.2084 15.125 9.46902 15.125 7.5625C15.125 3.38594 11.7391 0 7.5625 0Z" fill="white"/>
</g>
<defs>
<clipPath id="clip0">
<rect width="15.125" height="22" fill="white"/>
</clipPath>
</defs>
</svg>
