<svg width="24" height="24" viewBox="0 0 24 24" fill="none" xmlns="http://www.w3.org/2000/svg">
<path d="M19.14 12.936C19.176 12.636 19.2 12.324 19.2 12C19.2 11.676 19.176 11.364 19.128 11.064L21.156 9.48C21.336 9.336 21.384 9.072 21.276 8.868L19.356 5.544C19.236 5.328 18.984 5.256 18.768 5.328L16.38 6.288C15.876 5.904 15.348 5.592 14.76 5.352L14.4 2.808C14.364 2.568 14.16 2.4 13.92 2.4H10.08C9.83998 2.4 9.64799 2.568 9.61199 2.808L9.25199 5.352C8.66398 5.592 8.12399 5.916 7.63199 6.288L5.24398 5.328C5.02798 5.244 4.77598 5.328 4.65598 5.544L2.73598 8.868C2.61598 9.084 2.66398 9.336 2.85598 9.48L4.88398 11.064C4.83598 11.364 4.79998 11.688 4.79998 12C4.79998 12.312 4.82398 12.636 4.87198 12.936L2.84398 14.52C2.66398 14.664 2.61598 14.928 2.72398 15.132L4.64398 18.456C4.76398 18.672 5.01598 18.744 5.23198 18.672L7.61998 17.712C8.12398 18.096 8.65198 18.408 9.23998 18.648L9.59999 21.192C9.64798 21.432 9.83998 21.6 10.08 21.6H13.92C14.16 21.6 14.364 21.432 14.388 21.192L14.748 18.648C15.336 18.408 15.876 18.084 16.368 17.712L18.756 18.672C18.972 18.756 19.224 18.672 19.344 18.456L21.264 15.132C21.384 14.916 21.336 14.664 21.144 14.52L19.14 12.936ZM12 15.6C10.02 15.6 8.39998 13.98 8.39998 12C8.39998 10.02 10.02 8.4 12 8.4C13.98 8.4 15.6 10.02 15.6 12C15.6 13.98 13.98 15.6 12 15.6Z" fill="white"/>
</svg>
